<?xml version="1.0" standalone="no"?>
<!DOCTYPE svg PUBLIC "-//W3C//DTD SVG 20010904//EN"
 "http://www.w3.org/TR/2001/REC-SVG-20010904/DTD/svg10.dtd">
<svg version="1.0" xmlns="http://www.w3.org/2000/svg"
 width="700.000000pt" height="700.000000pt" viewBox="0 0 700.000000 700.000000"
 preserveAspectRatio="xMidYMid meet">
<metadata>
Created by potrace 1.11, written by Peter Selinger 2001-2013
</metadata>
<g transform="translate(0.000000,700.000000) scale(0.100000,-0.100000)"
fill="#000000" stroke="none">
<path d="M3257 6024 c-1 -1 -42 -5 -92 -9 -115 -9 -288 -38 -413 -69 -111 -29
-332 -103 -347 -117 -5 -5 -15 -9 -22 -9 -21 0 -259 -121 -353 -179 -268 -167
-478 -355 -702 -629 -115 -141 -264 -400 -345 -597 -90 -217 -132 -373 -178
-645 -20 -119 -27 -451 -12 -615 7 -75 28 -208 52 -330 19 -97 89 -309 142
-435 51 -119 123 -263 135 -268 4 -2 8 -9 8 -16 0 -17 135 -219 217 -324 64
-82 263 -290 345 -360 396 -339 898 -558 1413 -617 200 -22 529 -16 695 14 30
6 71 13 90 16 104 17 340 84 450 128 19 8 51 20 70 27 44 17 287 138 320 161
14 9 72 47 130 85 518 338 920 905 1076 1519 37 145 53 240 73 425 8 73 6 450
-3 500 -2 14 -7 50 -11 80 -44 361 -196 767 -410 1090 -158 240 -373 470 -600
642 -243 184 -487 312 -775 406 -92 31 -269 75 -340 86 -19 3 -44 8 -56 10
-12 2 -44 7 -72 10 -29 3 -76 9 -104 12 -49 6 -375 13 -381 8z"/>
</g>
</svg>
